# xmcd
#
# Track frame offsets:
#	150
#	7792
#	22702
#	33770
#	48990
#	62105
#	83852
#	97340
#	105307
#	119280
#	132960
#	151207
#	178410
#
# Disc length: 2681 seconds
#
# Revision: 0
# Processed by: cddbd v1.4PL0 Copyright (c) Steve Scherf et al.
# Submitted via: EasyCDDAExtractor 5.0.5.1
#
DISCID=980a770d
DTITLE=C.P. Grun - Last Pints in Paddy's
DYEAR=1998
DGENRE=Blues
TTITLE0=Feelin' Bad (Intro)
TTITLE1=Feelin' Bad
TTITLE2=Busy Lizzy
TTITLE3=The Ravin' Roland
TTITLE4=Beer Drinkin' Lady
TTITLE5=Moondog Blues
TTITLE6=Born To Be A Looser
TTITLE7=One More Whisky
TTITLE8=Bye Bye Willie
TTITLE9=Beer Drinkin' Lady (Rockmix)
TTITLE10=Song Of The Morningbirds
TTITLE11=Small Town Blues
TTITLE12=Gone Too Far
EXTD=
EXTT0=
EXTT1=
EXTT2=
EXTT3=
EXTT4=
EXTT5=
EXTT6=
EXTT7=
EXTT8=
EXTT9=
EXTT10=
EXTT11=
EXTT12=
PLAYORDER=
